<svg width="28" height="29" viewBox="0 0 28 29" fill="none" xmlns="http://www.w3.org/2000/svg">
<g opacity="0.5" filter="url(#filter0_d)">
<circle cx="14.1342" cy="14.5" r="3" stroke="#FA1E4E"/>
<path d="M22.7307 12.415L22.9807 12.848L22.7307 12.415ZM23.0967 11.049L23.5297 10.799L23.0967 11.049ZM21.1573 13.3234L20.9073 12.8904L21.1573 13.3234ZM21.1572 15.6811L20.9072 16.1141L21.1572 15.6811ZM20.6316 14.6827L20.1318 14.6689L20.6316 14.6827ZM23.0886 17.9509L23.5216 18.2009L23.0886 17.9509ZM22.7226 16.5849L22.9726 16.1519L22.7226 16.5849ZM20.2226 20.915L19.9726 21.348L20.2226 20.915ZM21.5886 20.549L22.0216 20.799L21.5886 20.549ZM18.6475 20.0056L18.3975 20.4386L18.6475 20.0056ZM17.235 20.2141L16.9961 19.7749L17.235 20.2141ZM6.6422 20.549L6.20919 20.799L6.6422 20.549ZM8.00822 20.915L8.25822 21.348L8.00822 20.915ZM7.63619 14.6647L7.13634 14.6771L7.63619 14.6647ZM7.11048 15.6598L6.86048 15.2268L7.11048 15.6598ZM7.11035 13.3447L6.86035 13.7777L7.11035 13.3447ZM6.63414 8.45092L6.20113 8.20092L6.63414 8.45092ZM11.0333 8.78588L11.2722 9.22514L11.0333 8.78588ZM21.5967 8.45093L21.1637 8.70093L21.5967 8.45093ZM20.2307 8.0849L19.9807 7.65189L20.2307 8.0849ZM12.6342 5.5H15.6342V4.5H12.6342V5.5ZM12.1342 7.83171V6H11.1342V7.83171H12.1342ZM10.9904 9.38844C11.0827 9.33154 11.1767 9.27708 11.2722 9.22514L10.7945 8.34663C10.683 8.40725 10.5734 8.4708 10.4657 8.53719L10.9904 9.38844ZM7.75017 8.51791L9.34892 9.44095L9.84892 8.57493L8.25017 7.65189L7.75017 8.51791ZM5.56715 11.299L7.06715 8.70092L6.20113 8.20092L4.70113 10.799L5.56715 11.299ZM7.36035 12.9117L5.75017 11.982L5.25017 12.848L6.86035 13.7777L7.36035 12.9117ZM8.13414 14.5C8.13414 14.4503 8.13475 14.4007 8.13595 14.3513L7.13624 14.327C7.13484 14.3845 7.13414 14.4422 7.13414 14.5H8.13414ZM8.13603 14.6522C8.13477 14.6017 8.13414 14.5509 8.13414 14.5H7.13414C7.13414 14.5592 7.13488 14.6182 7.13634 14.6771L8.13603 14.6522ZM5.75822 17.0179L7.36048 16.0928L6.86048 15.2268L5.25822 16.1519L5.75822 17.0179ZM7.07521 20.299L5.57521 17.7009L4.70919 18.2009L6.20919 20.799L7.07521 20.299ZM9.35274 19.5614L7.75822 20.482L8.25822 21.348L9.85274 20.4274L9.35274 19.5614ZM11.2722 19.7749C11.1777 19.7235 11.0848 19.6696 10.9934 19.6134L10.4692 20.465C10.5757 20.5306 10.6842 20.5934 10.7945 20.6534L11.2722 19.7749ZM12.1342 23V21.1683H11.1342V23H12.1342ZM15.6342 23.5H12.6342V24.5H15.6342V23.5ZM16.1342 21.1683V23H17.1342V21.1683H16.1342ZM17.2607 19.6221C17.1739 19.6752 17.0857 19.7261 16.9961 19.7749L17.4738 20.6534C17.5784 20.5965 17.6813 20.5371 17.7825 20.4751L17.2607 19.6221ZM20.4726 20.482L18.8975 19.5726L18.3975 20.4386L19.9726 21.348L20.4726 20.482ZM22.6556 17.7009L21.1556 20.299L22.0216 20.799L23.5216 18.2009L22.6556 17.7009ZM20.9072 16.1141L22.4726 17.0179L22.9726 16.1519L21.4072 15.2481L20.9072 16.1141ZM20.1341 14.5C20.1341 14.5565 20.1334 14.6128 20.1318 14.6689L21.1314 14.6965C21.1332 14.6312 21.1341 14.5657 21.1341 14.5H20.1341ZM20.1319 14.3346C20.1334 14.3896 20.1341 14.4447 20.1341 14.5H21.1341C21.1341 14.4357 21.1333 14.3715 21.1315 14.3076L20.1319 14.3346ZM22.4807 11.982L20.9073 12.8904L21.4073 13.7564L22.9807 12.848L22.4807 11.982ZM21.1637 8.70093L22.6637 11.299L23.5297 10.799L22.0297 8.20093L21.1637 8.70093ZM18.9013 9.42975L20.4807 8.51791L19.9807 7.65189L18.4013 8.56372L18.9013 9.42975ZM16.9961 9.22515C17.0867 9.27443 17.1759 9.32598 17.2637 9.37973L17.7861 8.52702C17.6837 8.46431 17.5796 8.40416 17.4738 8.34665L16.9961 9.22515ZM16.1342 6V7.83172H17.1342V6H16.1342ZM17.4738 8.34665C17.2543 8.22724 17.1342 8.02435 17.1342 7.83172H16.1342C16.1342 8.44628 16.5066 8.95893 16.9961 9.22515L17.4738 8.34665ZM22.9807 12.848C23.6981 12.4338 23.9439 11.5164 23.5297 10.799L22.6637 11.299C22.8017 11.5381 22.7198 11.8439 22.4807 11.982L22.9807 12.848ZM21.1315 14.3076C21.1248 14.0583 21.2403 13.8528 21.4073 13.7564L20.9073 12.8904C20.375 13.1977 20.1168 13.7768 20.1319 14.3346L21.1315 14.3076ZM21.4072 15.2481C21.2401 15.1516 21.1245 14.946 21.1314 14.6965L20.1318 14.6689C20.1164 15.227 20.3746 15.8066 20.9072 16.1141L21.4072 15.2481ZM23.5216 18.2009C23.9359 17.4835 23.69 16.5661 22.9726 16.1519L22.4726 17.0179C22.7117 17.156 22.7937 17.4618 22.6556 17.7009L23.5216 18.2009ZM19.9726 21.348C20.69 21.7623 21.6074 21.5164 22.0216 20.799L21.1556 20.299C21.0175 20.5381 20.7117 20.6201 20.4726 20.482L19.9726 21.348ZM17.7825 20.4751C17.9953 20.3449 18.2308 20.3424 18.3975 20.4386L18.8975 19.5726C18.3657 19.2656 17.7359 19.3314 17.2607 19.6221L17.7825 20.4751ZM17.1342 21.1683C17.1342 20.9757 17.2543 20.7728 17.4738 20.6534L16.9961 19.7749C16.5066 20.0411 16.1342 20.5537 16.1342 21.1683H17.1342ZM15.6342 24.5C16.4626 24.5 17.1342 23.8284 17.1342 23H16.1342C16.1342 23.2761 15.9103 23.5 15.6342 23.5V24.5ZM11.1342 23C11.1342 23.8284 11.8057 24.5 12.6342 24.5V23.5C12.358 23.5 12.1342 23.2761 12.1342 23H11.1342ZM10.7945 20.6534C11.014 20.7728 11.1342 20.9757 11.1342 21.1683H12.1342C12.1342 20.5537 11.7617 20.0411 11.2722 19.7749L10.7945 20.6534ZM6.20919 20.799C6.6234 21.5164 7.54078 21.7623 8.25822 21.348L7.75822 20.482C7.51908 20.6201 7.21328 20.5381 7.07521 20.299L6.20919 20.799ZM5.25822 16.1519C4.54078 16.5661 4.29497 17.4835 4.70919 18.2009L5.57521 17.7009C5.43714 17.4618 5.51908 17.156 5.75822 17.0179L5.25822 16.1519ZM7.13634 14.6771C7.14253 14.9258 7.02711 15.1306 6.86048 15.2268L7.36048 16.0928C7.89154 15.7862 8.14987 15.2089 8.13603 14.6522L7.13634 14.6771ZM6.86035 13.7777C7.02688 13.8738 7.14228 14.0785 7.13624 14.327L8.13595 14.3513C8.14946 13.7949 7.8911 13.2181 7.36035 12.9117L6.86035 13.7777ZM4.70113 10.799C4.28692 11.5164 4.53273 12.4338 5.25017 12.848L5.75017 11.982C5.51102 11.8439 5.42908 11.5381 5.56715 11.299L4.70113 10.799ZM8.25017 7.65189C7.53273 7.23767 6.61534 7.48348 6.20113 8.20092L7.06715 8.70092C7.20523 8.46178 7.51102 8.37984 7.75017 8.51791L8.25017 7.65189ZM10.4657 8.53719C10.2526 8.66857 10.0162 8.6715 9.84892 8.57493L9.34892 9.44095C9.88255 9.74905 10.5146 9.68175 10.9904 9.38844L10.4657 8.53719ZM11.1342 7.83171C11.1342 8.02433 11.014 8.22723 10.7945 8.34663L11.2722 9.22514C11.7617 8.95892 12.1342 8.44627 12.1342 7.83171H11.1342ZM18.4013 8.56372C18.2345 8.66003 17.9989 8.65742 17.7861 8.52702L17.2637 9.37973C17.739 9.67092 18.3692 9.73697 18.9013 9.42975L18.4013 8.56372ZM15.6342 5.5C15.9103 5.5 16.1342 5.72386 16.1342 6H17.1342C17.1342 5.17157 16.4626 4.5 15.6342 4.5V5.5ZM9.85274 20.4274C10.0199 20.3309 10.2561 20.3338 10.4692 20.465L10.9934 19.6134C10.5177 19.3205 9.88605 19.2535 9.35274 19.5614L9.85274 20.4274ZM22.0297 8.20093C21.6155 7.48349 20.6981 7.23767 19.9807 7.65189L20.4807 8.51791C20.7198 8.37984 21.0256 8.46178 21.1637 8.70093L22.0297 8.20093ZM12.6342 4.5C11.8057 4.5 11.1342 5.17157 11.1342 6H12.1342C12.1342 5.72386 12.358 5.5 12.6342 5.5V4.5Z" fill="#FA1E4E"/>
</g>
<defs>
<filter id="filter0_d" x="0.499939" y="0.5" width="27.231" height="28" filterUnits="userSpaceOnUse" color-interpolation-filters="sRGB">
<feFlood flood-opacity="0" result="BackgroundImageFix"/>
<feColorMatrix in="SourceAlpha" type="matrix" values="0 0 0 0 0 0 0 0 0 0 0 0 0 0 0 0 0 0 127 0"/>
<feOffset/>
<feGaussianBlur stdDeviation="2"/>
<feColorMatrix type="matrix" values="0 0 0 0 0.980392 0 0 0 0 0.117647 0 0 0 0 0.305882 0 0 0 0.5 0"/>
<feBlend mode="normal" in2="BackgroundImageFix" result="effect1_dropShadow"/>
<feBlend mode="normal" in="SourceGraphic" in2="effect1_dropShadow" result="shape"/>
</filter>
</defs>
</svg>
