<svg width="14" height="14" viewBox="0 0 14 14" fill="none" xmlns="http://www.w3.org/2000/svg">
<g filter="url(#filter0_d)">
<path d="M9.68836 1H4.3115C2.48554 1 1 2.48561 1 4.31157V9.68843C1 11.5145 2.48554 13 4.3115 13H9.68836C11.5145 13 13 11.5144 13 9.68843V4.31157C13.0001 2.48561 11.5145 1 9.68836 1ZM11.9354 9.68843C11.9354 10.9274 10.9274 11.9353 9.68843 11.9353H4.3115C3.07261 11.9354 2.0647 10.9274 2.0647 9.68843V4.31157C2.0647 3.07268 3.07261 2.0647 4.3115 2.0647H9.68836C10.9273 2.0647 11.9353 3.07268 11.9353 4.31157V9.68843H11.9354Z" fill="#FA1E4E" fill-opacity="0.7"/>
<path d="M7.00006 3.90808C5.29505 3.90808 3.90796 5.29517 3.90796 7.00018C3.90796 8.70511 5.29505 10.0921 7.00006 10.0921C8.70506 10.0921 10.0922 8.70511 10.0922 7.00018C10.0922 5.29517 8.70506 3.90808 7.00006 3.90808ZM7.00006 9.02736C5.88219 9.02736 4.97266 8.11797 4.97266 7.00011C4.97266 5.88217 5.88212 4.97271 7.00006 4.97271C8.11799 4.97271 9.02745 5.88217 9.02745 7.00011C9.02745 8.11797 8.11792 9.02736 7.00006 9.02736Z" fill="#FA1E4E" fill-opacity="0.7"/>
<path d="M10.2217 3.00525C10.0166 3.00525 9.81505 3.0883 9.67018 3.2338C9.5246 3.3786 9.44092 3.58019 9.44092 3.78603C9.44092 3.99123 9.52467 4.19274 9.67018 4.33825C9.81498 4.48305 10.0166 4.56681 10.2217 4.56681C10.4275 4.56681 10.6284 4.48305 10.7739 4.33825C10.9194 4.19274 11.0025 3.99116 11.0025 3.78603C11.0025 3.58019 10.9194 3.3786 10.7739 3.2338C10.6291 3.0883 10.4275 3.00525 10.2217 3.00525Z" fill="#FA1E4E" fill-opacity="0.7"/>
</g>
<defs>
<filter id="filter0_d" x="0" y="0" width="14" height="14" filterUnits="userSpaceOnUse" color-interpolation-filters="sRGB">
<feFlood flood-opacity="0" result="BackgroundImageFix"/>
<feColorMatrix in="SourceAlpha" type="matrix" values="0 0 0 0 0 0 0 0 0 0 0 0 0 0 0 0 0 0 127 0"/>
<feOffset/>
<feGaussianBlur stdDeviation="0.5"/>
<feColorMatrix type="matrix" values="0 0 0 0 0 0 0 0 0 0 0 0 0 0 0 0 0 0 0.25 0"/>
<feBlend mode="normal" in2="BackgroundImageFix" result="effect1_dropShadow"/>
<feBlend mode="normal" in="SourceGraphic" in2="effect1_dropShadow" result="shape"/>
</filter>
</defs>
</svg>
