<svg width="26" height="20" viewBox="0 0 26 20" fill="none" xmlns="http://www.w3.org/2000/svg">
<g filter="url(#filter0_d)">
<mask id="path-1-inside-1" fill="white">
<path fill-rule="evenodd" clip-rule="evenodd" d="M14.2709 5.00002C14.7284 4.58605 15.2879 4.27517 15.9197 4.11508C17.563 3.69876 19.2523 4.43127 19.8715 6.00045C20.2429 6.94185 20.6336 8.07556 20.9311 9.29009C21.2171 10.4577 21.3424 11.5506 21.3859 12.4698C21.463 14.0989 20.2558 15.4291 18.683 15.8276C16.9399 16.2692 15.2102 15.4778 14.3796 14H10.9947C10.2264 15.4602 8.56641 16.2831 6.85773 15.9108C5.23359 15.557 3.97543 14.196 4.00036 12.5263C4.01464 11.5701 4.09637 10.4707 4.32125 9.3998C4.55629 8.28043 4.92354 7.13001 5.2834 6.14453C5.8668 4.54686 7.54734 3.73428 9.21647 4.09791C9.88952 4.24455 10.4858 4.56403 10.968 5.00002H14.2709Z"/>
</mask>
<path d="M15.9197 4.11508L15.6741 3.14571L15.9197 4.11508ZM14.2709 5.00002V6.00002H14.6562L14.9418 5.74155L14.2709 5.00002ZM19.8715 6.00045L18.9413 6.3675L18.9413 6.3675L19.8715 6.00045ZM20.9311 9.29009L21.9024 9.0522V9.0522L20.9311 9.29009ZM21.3859 12.4698L20.387 12.5171V12.5171L21.3859 12.4698ZM18.683 15.8276L18.9286 16.7969L18.683 15.8276ZM14.3796 14L15.2514 13.5101L14.9647 13H14.3796V14ZM10.9947 14V13H10.3909L10.1097 13.5344L10.9947 14ZM6.85773 15.9108L6.64487 16.8879L6.85773 15.9108ZM4.00036 12.5263L5.00025 12.5412L4.00036 12.5263ZM4.32125 9.3998L5.2999 9.6053L4.32125 9.3998ZM5.2834 6.14453L4.34407 5.80152L5.2834 6.14453ZM9.21647 4.09791L9.0036 5.075L9.21647 4.09791ZM10.968 5.00002L10.2973 5.74178L10.583 6.00002H10.968V5.00002ZM15.6741 3.14571C14.8781 3.3474 14.1739 3.7392 13.6 4.2585L14.9418 5.74155C15.283 5.4329 15.6977 5.20293 16.1653 5.08446L15.6741 3.14571ZM20.8017 5.6334C19.9731 3.53343 17.7366 2.62318 15.6741 3.14571L16.1653 5.08446C17.3894 4.77433 18.5315 5.32911 18.9413 6.3675L20.8017 5.6334ZM21.9024 9.0522C21.5916 7.78303 21.1851 6.6052 20.8017 5.6334L18.9413 6.3675C19.3008 7.27851 19.6757 8.36809 19.9598 9.52798L21.9024 9.0522ZM22.3848 12.4225C22.3388 11.4514 22.2064 10.2932 21.9024 9.0522L19.9598 9.52797C20.2278 10.6222 20.346 11.6499 20.387 12.5171L22.3848 12.4225ZM18.9286 16.7969C20.863 16.3069 22.4889 14.6218 22.3848 12.4225L20.387 12.5171C20.4371 13.576 19.6486 14.5513 18.4374 14.8582L18.9286 16.7969ZM13.5079 14.49C14.5564 16.3554 16.7407 17.3513 18.9286 16.7969L18.4374 14.8582C17.1392 15.1871 15.8641 14.6002 15.2514 13.5101L13.5079 14.49ZM14.3796 13H10.9947V15H14.3796V13ZM6.64487 16.8879C8.80048 17.3575 10.9057 16.3168 11.8797 14.4657L10.1097 13.5344C9.54712 14.6036 8.33233 15.2086 7.0706 14.9337L6.64487 16.8879ZM3.00048 12.5113C2.96734 14.7302 4.63133 16.4492 6.64487 16.8879L7.0706 14.9337C5.83584 14.6647 4.98352 13.6618 5.00025 12.5412L3.00048 12.5113ZM3.34259 9.1943C3.10052 10.3471 3.01537 11.5143 3.00048 12.5113L5.00025 12.5412C5.01392 11.6259 5.09222 10.5943 5.2999 9.6053L3.34259 9.1943ZM4.34407 5.80152C3.97516 6.81177 3.59103 8.01116 3.34259 9.1943L5.2999 9.6053C5.52156 8.54971 5.87192 7.44825 6.22273 6.48754L4.34407 5.80152ZM9.42934 3.12083C7.32796 2.66303 5.11805 3.68194 4.34407 5.80152L6.22273 6.48754C6.61555 5.41179 7.76671 4.80553 9.0036 5.075L9.42934 3.12083ZM11.6387 4.25826C11.0321 3.70985 10.2795 3.30606 9.42934 3.12083L9.0036 5.075C9.49952 5.18304 9.93946 5.4182 10.2973 5.74178L11.6387 4.25826ZM10.968 6.00002H14.2709V4.00002H10.968V6.00002Z" fill="#FA1E4E" mask="url(#path-1-inside-1)"/>
<circle cx="16.2347" cy="10" r="1" fill="#FA1E4E"/>
<circle cx="9.23468" cy="10" r="1" fill="#FA1E4E"/>
</g>
<defs>
<filter id="filter0_d" x="0" y="0" width="25.3894" height="20" filterUnits="userSpaceOnUse" color-interpolation-filters="sRGB">
<feFlood flood-opacity="0" result="BackgroundImageFix"/>
<feColorMatrix in="SourceAlpha" type="matrix" values="0 0 0 0 0 0 0 0 0 0 0 0 0 0 0 0 0 0 127 0"/>
<feOffset/>
<feGaussianBlur stdDeviation="2"/>
<feColorMatrix type="matrix" values="0 0 0 0 0.980392 0 0 0 0 0.117647 0 0 0 0 0.305882 0 0 0 0.5 0"/>
<feBlend mode="normal" in2="BackgroundImageFix" result="effect1_dropShadow"/>
<feBlend mode="normal" in="SourceGraphic" in2="effect1_dropShadow" result="shape"/>
</filter>
</defs>
</svg>
