<svg width="19" height="19" viewBox="0 0 19 19" fill="none" xmlns="http://www.w3.org/2000/svg">
<path d="M12 9.5C12 10.8807 10.8807 12 9.5 12C8.11929 12 7 10.8807 7 9.5C7 8.11929 8.11929 7 9.5 7C10.8807 7 12 8.11929 12 9.5Z" fill="#FA1E4E"/>
<path d="M11.5 9.5L14 5L9.5 7.5L11.5 9.5Z" fill="#FA1E4E"/>
<path d="M18 9C18 4.30558 14.1944 1 9.5 1C4.80558 1 1 4.80558 1 9.5C1 14.1944 4.80558 18 9.5 18H11V19H9.5C4.25329 19 0 14.7467 0 9.5C0 4.25329 4.25329 0 9.5 0C14.7467 0 19 3.75329 19 9H18Z" fill="#FA1E4E"/>
<path d="M19 10H18V11H19V10Z" fill="#FA1E4E"/>
<path d="M19 12H18V13H19V12Z" fill="#FA1E4E"/>
</svg>
